<mxGraphModel dx="2038" dy="748" grid="1" gridSize="10" guides="1" tooltips="1" connect="1" arrows="1" fold="1" page="0" pageScale="1" pageWidth="827" pageHeight="1169" math="0" shadow="0">
  <root>
    <mxCell id="0" />
    <mxCell id="1" parent="0" />
    <mxCell id="EBAIrEwSQ_sO8G7dM4pI-14" style="edgeStyle=orthogonalEdgeStyle;rounded=0;orthogonalLoop=1;jettySize=auto;html=1;exitX=1;exitY=0.5;exitDx=0;exitDy=0;entryX=0;entryY=0.5;entryDx=0;entryDy=0;" parent="1" source="EBAIrEwSQ_sO8G7dM4pI-9" target="EBAIrEwSQ_sO8G7dM4pI-10" edge="1">
      <mxGeometry relative="1" as="geometry" />
    </mxCell>
    <object label="" type="initialstate" id="EBAIrEwSQ_sO8G7dM4pI-9">
      <mxCell style="ellipse;whiteSpace=wrap;html=1;aspect=fixed;glass=0;sketch=0;fillColor=#000000;" parent="1" vertex="1">
        <mxGeometry x="-930" y="30" width="30" height="30" as="geometry" />
      </mxCell>
    </object>
    <object label="" guard="TimerSet == StartPush &amp;&amp; !button3" id="EBAIrEwSQ_sO8G7dM4pI-15">
      <mxCell style="edgeStyle=orthogonalEdgeStyle;rounded=0;orthogonalLoop=1;jettySize=auto;html=1;exitX=1;exitY=0.5;exitDx=0;exitDy=0;entryX=0;entryY=0.5;entryDx=0;entryDy=0;" parent="1" source="EBAIrEwSQ_sO8G7dM4pI-10" target="EBAIrEwSQ_sO8G7dM4pI-12" edge="1">
        <mxGeometry relative="1" as="geometry" />
      </mxCell>
    </object>
    <mxCell id="43" value="Start" style="edgeLabel;html=1;align=center;verticalAlign=middle;resizable=0;points=[];" vertex="1" connectable="0" parent="EBAIrEwSQ_sO8G7dM4pI-15">
      <mxGeometry x="-0.2692" y="1" relative="1" as="geometry">
        <mxPoint as="offset" />
      </mxGeometry>
    </mxCell>
    <object label="TimerSet" type="state" entry="displayClock(min, sec)" id="EBAIrEwSQ_sO8G7dM4pI-10">
      <mxCell style="swimlane;rounded=1;whiteSpace=wrap;html=1;glass=0;sketch=0;" parent="1" vertex="1">
        <mxGeometry x="-830" y="-40" width="410" height="190" as="geometry" />
      </mxCell>
    </object>
    <object label="Start" guard="button3" id="78">
      <mxCell style="edgeStyle=none;html=1;exitX=0.5;exitY=1;exitDx=0;exitDy=0;entryX=0.5;entryY=0;entryDx=0;entryDy=0;" edge="1" parent="EBAIrEwSQ_sO8G7dM4pI-10" source="48" target="49">
        <mxGeometry relative="1" as="geometry" />
      </mxCell>
    </object>
    <object label="Release" type="state" id="48">
      <mxCell style="swimlane;rounded=1;whiteSpace=wrap;html=1;glass=0;sketch=0;" vertex="1" parent="EBAIrEwSQ_sO8G7dM4pI-10">
        <mxGeometry x="145" y="70" width="80" height="40" as="geometry" />
      </mxCell>
    </object>
    <object label="StartPush" type="state" id="49">
      <mxCell style="swimlane;rounded=1;whiteSpace=wrap;html=1;glass=0;sketch=0;" vertex="1" parent="EBAIrEwSQ_sO8G7dM4pI-10">
        <mxGeometry x="140" y="150" width="80" height="40" as="geometry" />
      </mxCell>
    </object>
    <object label="MinPush" type="state" entry="increaseMin()" id="50">
      <mxCell style="swimlane;rounded=1;whiteSpace=wrap;html=1;glass=0;sketch=0;" vertex="1" parent="EBAIrEwSQ_sO8G7dM4pI-10">
        <mxGeometry x="290" y="70" width="80" height="40" as="geometry" />
      </mxCell>
    </object>
    <object label="" guard="!button2" id="51">
      <mxCell style="edgeStyle=none;html=1;exitX=1;exitY=0.75;exitDx=0;exitDy=0;entryX=0;entryY=0.75;entryDx=0;entryDy=0;" edge="1" parent="EBAIrEwSQ_sO8G7dM4pI-10" source="53" target="48">
        <mxGeometry relative="1" as="geometry" />
      </mxCell>
    </object>
    <mxCell id="52" value="Release" style="edgeLabel;html=1;align=center;verticalAlign=middle;resizable=0;points=[];" vertex="1" connectable="0" parent="51">
      <mxGeometry x="-0.272" relative="1" as="geometry">
        <mxPoint as="offset" />
      </mxGeometry>
    </mxCell>
    <object label="SecPush" type="state" entry="increaseSec()" id="53">
      <mxCell style="swimlane;rounded=1;whiteSpace=wrap;html=1;glass=0;sketch=0;" vertex="1" parent="EBAIrEwSQ_sO8G7dM4pI-10">
        <mxGeometry y="70" width="80" height="40" as="geometry" />
      </mxCell>
    </object>
    <object label="" guard="button2" id="54">
      <mxCell style="edgeStyle=none;html=1;exitX=0;exitY=0.5;exitDx=0;exitDy=0;entryX=1;entryY=0.5;entryDx=0;entryDy=0;" edge="1" parent="EBAIrEwSQ_sO8G7dM4pI-10" source="48" target="53">
        <mxGeometry relative="1" as="geometry" />
      </mxCell>
    </object>
    <mxCell id="55" value="Push2" style="edgeLabel;html=1;align=center;verticalAlign=middle;resizable=0;points=[];" vertex="1" connectable="0" parent="54">
      <mxGeometry x="0.2388" y="1" relative="1" as="geometry">
        <mxPoint as="offset" />
      </mxGeometry>
    </mxCell>
    <mxCell id="56" style="edgeStyle=none;html=1;exitX=0.5;exitY=1;exitDx=0;exitDy=0;entryX=0.5;entryY=0;entryDx=0;entryDy=0;" edge="1" parent="EBAIrEwSQ_sO8G7dM4pI-10" source="57" target="48">
      <mxGeometry relative="1" as="geometry" />
    </mxCell>
    <object label="" type="initialstate" id="57">
      <mxCell style="ellipse;whiteSpace=wrap;html=1;aspect=fixed;glass=0;sketch=0;fillColor=#000000;" vertex="1" parent="EBAIrEwSQ_sO8G7dM4pI-10">
        <mxGeometry x="170" y="10" width="20" height="20" as="geometry" />
      </mxCell>
    </object>
    <object label="" guard="!button1" id="58">
      <mxCell style="edgeStyle=none;html=1;exitX=0;exitY=0.75;exitDx=0;exitDy=0;entryX=1;entryY=0.75;entryDx=0;entryDy=0;" edge="1" parent="EBAIrEwSQ_sO8G7dM4pI-10" source="50" target="48">
        <mxGeometry relative="1" as="geometry">
          <Array as="points" />
          <mxPoint x="90" y="100" as="sourcePoint" />
          <mxPoint x="155" y="110" as="targetPoint" />
        </mxGeometry>
      </mxCell>
    </object>
    <mxCell id="59" value="Release" style="edgeLabel;html=1;align=center;verticalAlign=middle;resizable=0;points=[];" vertex="1" connectable="0" parent="58">
      <mxGeometry x="-0.272" relative="1" as="geometry">
        <mxPoint as="offset" />
      </mxGeometry>
    </mxCell>
    <object label="" guard="button1" id="60">
      <mxCell style="edgeStyle=none;html=1;exitX=1;exitY=0.25;exitDx=0;exitDy=0;entryX=0;entryY=0.25;entryDx=0;entryDy=0;" edge="1" parent="EBAIrEwSQ_sO8G7dM4pI-10" source="48" target="50">
        <mxGeometry relative="1" as="geometry">
          <mxPoint x="155" y="100" as="sourcePoint" />
          <mxPoint x="90" y="90" as="targetPoint" />
        </mxGeometry>
      </mxCell>
    </object>
    <mxCell id="61" value="Push1" style="edgeLabel;html=1;align=center;verticalAlign=middle;resizable=0;points=[];" vertex="1" connectable="0" parent="60">
      <mxGeometry x="0.2388" y="1" relative="1" as="geometry">
        <mxPoint as="offset" />
      </mxGeometry>
    </mxCell>
    <object label="TimerStart" type="state" id="EBAIrEwSQ_sO8G7dM4pI-12">
      <mxCell style="swimlane;rounded=1;whiteSpace=wrap;html=1;glass=0;sketch=0;startSize=23;arcSize=18;" parent="1" vertex="1">
        <mxGeometry x="-250" y="-80" width="180" height="240" as="geometry" />
      </mxCell>
    </object>
    <object label="Count" type="state" entry="count = 0" do="count += 1" id="64">
      <mxCell style="swimlane;rounded=1;whiteSpace=wrap;html=1;glass=0;sketch=0;" vertex="1" parent="EBAIrEwSQ_sO8G7dM4pI-12">
        <mxGeometry x="35" y="70" width="120" height="40" as="geometry" />
      </mxCell>
    </object>
    <object label="StopPush" type="state" id="65">
      <mxCell style="swimlane;rounded=1;whiteSpace=wrap;html=1;glass=0;sketch=0;" vertex="1" parent="EBAIrEwSQ_sO8G7dM4pI-12">
        <mxGeometry x="35" y="180" width="120" height="40" as="geometry" />
      </mxCell>
    </object>
    <mxCell id="66" style="edgeStyle=none;html=1;exitX=0.5;exitY=1;exitDx=0;exitDy=0;entryX=0.5;entryY=0;entryDx=0;entryDy=0;" edge="1" parent="EBAIrEwSQ_sO8G7dM4pI-12" source="67" target="64">
      <mxGeometry relative="1" as="geometry" />
    </mxCell>
    <object label="" type="initialstate" id="67">
      <mxCell style="ellipse;whiteSpace=wrap;html=1;aspect=fixed;glass=0;sketch=0;fillColor=#000000;" vertex="1" parent="EBAIrEwSQ_sO8G7dM4pI-12">
        <mxGeometry x="85" y="30" width="20" height="20" as="geometry" />
      </mxCell>
    </object>
    <object label="" action="decreaseSec()" guard="count == Sec1" id="68">
      <mxCell style="edgeStyle=orthogonalEdgeStyle;rounded=0;orthogonalLoop=1;jettySize=auto;html=1;exitX=0;exitY=0.25;exitDx=0;exitDy=0;entryX=0;entryY=1;entryDx=0;entryDy=0;" edge="1" parent="EBAIrEwSQ_sO8G7dM4pI-12" source="64" target="64">
        <mxGeometry relative="1" as="geometry">
          <mxPoint x="-160" y="125" as="sourcePoint" />
          <mxPoint x="10" y="110" as="targetPoint" />
          <Array as="points">
            <mxPoint y="80" />
            <mxPoint y="110" />
          </Array>
        </mxGeometry>
      </mxCell>
    </object>
    <mxCell id="69" value="OneSec" style="edgeLabel;html=1;align=center;verticalAlign=middle;resizable=0;points=[];" vertex="1" connectable="0" parent="68">
      <mxGeometry x="-0.2692" y="1" relative="1" as="geometry">
        <mxPoint as="offset" />
      </mxGeometry>
    </mxCell>
    <object label="" guard="button3" id="70">
      <mxCell style="edgeStyle=orthogonalEdgeStyle;rounded=0;orthogonalLoop=1;jettySize=auto;html=1;exitX=0.5;exitY=1;exitDx=0;exitDy=0;entryX=0.5;entryY=0;entryDx=0;entryDy=0;" edge="1" parent="EBAIrEwSQ_sO8G7dM4pI-12" source="64" target="65">
        <mxGeometry relative="1" as="geometry">
          <mxPoint x="-135" y="175" as="sourcePoint" />
          <mxPoint x="35" y="160" as="targetPoint" />
        </mxGeometry>
      </mxCell>
    </object>
    <mxCell id="71" value="Push" style="edgeLabel;html=1;align=center;verticalAlign=middle;resizable=0;points=[];" vertex="1" connectable="0" parent="70">
      <mxGeometry x="-0.2692" y="1" relative="1" as="geometry">
        <mxPoint as="offset" />
      </mxGeometry>
    </mxCell>
    <mxCell id="EBAIrEwSQ_sO8G7dM4pI-20" style="edgeStyle=orthogonalEdgeStyle;rounded=0;orthogonalLoop=1;jettySize=auto;html=1;exitX=0;exitY=0.5;exitDx=0;exitDy=0;exitPerimeter=0;entryX=0.5;entryY=0;entryDx=0;entryDy=0;endArrow=none;endFill=0;dashed=1;" parent="1" source="EBAIrEwSQ_sO8G7dM4pI-19" target="EBAIrEwSQ_sO8G7dM4pI-10" edge="1">
      <mxGeometry relative="1" as="geometry" />
    </mxCell>
    <object label="This is a note." type="note" id="EBAIrEwSQ_sO8G7dM4pI-19">
      <mxCell style="shape=note;whiteSpace=wrap;html=1;backgroundOutline=1;darkOpacity=0.05;glass=0;sketch=0;fillColor=#ffffff;" parent="1" vertex="1">
        <mxGeometry x="-580" y="-160" width="80" height="100" as="geometry" />
      </mxCell>
    </object>
    <object label="Alarm" type="state" id="2">
      <mxCell style="swimlane;rounded=1;whiteSpace=wrap;html=1;glass=0;sketch=0;startSize=23;" vertex="1" parent="1">
        <mxGeometry x="-410" y="200" width="130" height="80" as="geometry" />
      </mxCell>
    </object>
    <object label="" guard="min == 0 &amp;&amp; sec == 0" id="3">
      <mxCell style="edgeStyle=orthogonalEdgeStyle;rounded=0;orthogonalLoop=1;jettySize=auto;html=1;exitX=0.5;exitY=1;exitDx=0;exitDy=0;entryX=1;entryY=0.5;entryDx=0;entryDy=0;" edge="1" parent="1" source="EBAIrEwSQ_sO8G7dM4pI-12" target="2">
        <mxGeometry relative="1" as="geometry">
          <mxPoint x="-370" y="145" as="targetPoint" />
          <mxPoint x="-280" y="145" as="sourcePoint" />
        </mxGeometry>
      </mxCell>
    </object>
    <mxCell id="42" value="AlarmOn" style="edgeLabel;html=1;align=center;verticalAlign=middle;resizable=0;points=[];" vertex="1" connectable="0" parent="3">
      <mxGeometry x="0.5658" relative="1" as="geometry">
        <mxPoint as="offset" />
      </mxGeometry>
    </mxCell>
    <mxCell id="5" style="edgeStyle=orthogonalEdgeStyle;rounded=0;orthogonalLoop=1;jettySize=auto;html=1;exitX=0;exitY=0.5;exitDx=0;exitDy=0;entryX=0.5;entryY=1;entryDx=0;entryDy=0;" edge="1" parent="1" source="2" target="EBAIrEwSQ_sO8G7dM4pI-10">
      <mxGeometry relative="1" as="geometry">
        <mxPoint x="-370" y="145" as="targetPoint" />
        <mxPoint x="-280" y="145" as="sourcePoint" />
      </mxGeometry>
    </mxCell>
    <mxCell id="41" value="AlarmOff" style="edgeLabel;html=1;align=center;verticalAlign=middle;resizable=0;points=[];" vertex="1" connectable="0" parent="5">
      <mxGeometry x="0.0362" y="-1" relative="1" as="geometry">
        <mxPoint as="offset" />
      </mxGeometry>
    </mxCell>
    <object label="" guard="TimerStart == StopPush &amp;&amp; !button3" id="9">
      <mxCell style="edgeStyle=orthogonalEdgeStyle;rounded=0;orthogonalLoop=1;jettySize=auto;html=1;entryX=1;entryY=0.75;entryDx=0;entryDy=0;exitX=0;exitY=0.75;exitDx=0;exitDy=0;" edge="1" parent="1" source="EBAIrEwSQ_sO8G7dM4pI-12" target="EBAIrEwSQ_sO8G7dM4pI-10">
        <mxGeometry relative="1" as="geometry">
          <mxPoint x="-320" y="160" as="sourcePoint" />
          <mxPoint x="-280" y="125" as="targetPoint" />
        </mxGeometry>
      </mxCell>
    </object>
    <mxCell id="44" value="Stop" style="edgeLabel;html=1;align=center;verticalAlign=middle;resizable=0;points=[];" vertex="1" connectable="0" parent="9">
      <mxGeometry x="0.1189" y="1" relative="1" as="geometry">
        <mxPoint as="offset" />
      </mxGeometry>
    </mxCell>
  </root>
</mxGraphModel>

